{
  "asset": {
    "generator": "Khronos glTF Blender I/O v3.3.27",
    "version": "2.0"
  },
  "scene": 0,
  "scenes": [
    {
      "name": "Scene",
      "nodes": [
        0,
        1,
        2,
        3,
        4,
        5,
        6,
        7,
        8,
        9,
        10,
        11,
        12,
        13,
        14,
        15
      ]
    }
  ],
  "nodes": [
    {
      "mesh": 0,
      "name": "Square",
      "scale": [
        0.8104503750801086,
        0.8104503750801086,
        0.8104503750801086
      ],
      "translation": [
        0,
        1.13578200340271,
        -2.3949997425079346
      ]
    },
    {
      "mesh": 1,
      "name": "Circle",
      "scale": [
        0.8104503750801086,
        0.8104503750801086,
        0.8104503750801086
      ],
      "translation": [
        1.500000238418579,
        1.135782241821289,
        -2.3949997425079346
      ]
    },
    {
      "mesh": 2,
      "name": "Triangle",
      "scale": [
        0.8104503750801086,
        0.8104503750801086,
        0.8104503750801086
      ],
      "translation": [
        -1.5,
        1.0007820129394531,
        -2.3949997425079346
      ]
    },
    {
      "mesh": 3,
      "name": "Cube",
      "translation": [
        0,
        0.2730676531791687,
        0
      ]
    },
    {
      "mesh": 4,
      "name": "Floor"
    },
    {
      "mesh": 5,
      "name": "Wall_1",
      "rotation": [
        0.7071068286895752,
        0,
        0,
        0.7071068286895752
      ],
      "scale": [
        1,
        1,
        0.5
      ],
      "translation": [
        0,
        1.2999999523162842,
        2.450000047683716
      ]
    },
    {
      "mesh": 6,
      "name": "Wall_4",
      "rotation": [
        0.7071068286895752,
        0,
        0,
        0.7071068286895752
      ],
      "scale": [
        1,
        1,
        0.5
      ],
      "translation": [
        0,
        1.2999999523162842,
        -2.450000047683716
      ]
    },
    {
      "mesh": 7,
      "name": "Wall_3",
      "rotation": [
        0.5,
        0.5,
        -0.5,
        0.5
      ],
      "scale": [
        1,
        1,
        0.5
      ],
      "translation": [
        2.450000047683716,
        1.2999999523162842,
        0
      ]
    },
    {
      "mesh": 8,
      "name": "Wall_2",
      "rotation": [
        0.5,
        0.5,
        -0.5,
        0.5
      ],
      "scale": [
        1,
        1,
        0.5
      ],
      "translation": [
        -2.4499995708465576,
        1.2999999523162842,
        0
      ]
    },
    {
      "mesh": 9,
      "name": "Roof",
      "translation": [
        0,
        2.5,
        0
      ]
    },
    {
      "mesh": 10,
      "name": "Floor.001",
      "translation": [
        -5.000001907348633,
        0,
        0
      ]
    },
    {
      "mesh": 11,
      "name": "Wall_1.001",
      "rotation": [
        0.7071068286895752,
        0,
        0,
        0.7071068286895752
      ],
      "scale": [
        1,
        1,
        0.5
      ],
      "translation": [
        -5.000001907348633,
        1.2999999523162842,
        -2.449998378753662
      ]
    },
    {
      "mesh": 12,
      "name": "Wall_4.001",
      "rotation": [
        0.7071068286895752,
        0,
        0,
        0.7071068286895752
      ],
      "scale": [
        1,
        1,
        0.5
      ],
      "translation": [
        -5.000001907348633,
        1.2999999523162842,
        2.4500017166137695
      ]
    },
    {
      "mesh": 13,
      "name": "Wall_3.001",
      "rotation": [
        0.4999999403953552,
        0.5000001192092896,
        -0.5000000596046448,
        0.4999999403953552
      ],
      "scale": [
        1,
        1,
        0.5
      ],
      "translation": [
        -7.4500017166137695,
        1.2999999523162842,
        0
      ]
    },
    {
      "mesh": 14,
      "name": "Wall_2.001",
      "rotation": [
        0.5000002384185791,
        -0.49999985098838806,
        0.49999988079071045,
        0.5000001192092896
      ],
      "scale": [
        1,
        1,
        0.5
      ],
      "translation": [
        -2.550001859664917,
        1.2999999523162842,
        0
      ]
    },
    {
      "mesh": 15,
      "name": "Wall_2.002",
      "translation": [
        -0.09000000357627869,
        0,
        0
      ]
    }
  ],
  "materials": [
    {
      "doubleSided": true,
      "name": "ColoredMaterial",
      "pbrMetallicRoughness": {
        "baseColorTexture": {
          "index": 0
        },
        "metallicFactor": 0,
        "roughnessFactor": 0.4000000059604645
      }
    },
    {
      "doubleSided": true,
      "name": "WallsMaterial",
      "pbrMetallicRoughness": {
        "metallicFactor": 0,
        "roughnessFactor": 0.5
      }
    }
  ],
  "meshes": [
    {
      "name": "Square",
      "primitives": [
        {
          "attributes": {
            "POSITION": 0,
            "NORMAL": 1,
            "TEXCOORD_0": 2
          },
          "indices": 3,
          "material": 0
        }
      ]
    },
    {
      "name": "Circle",
      "primitives": [
        {
          "attributes": {
            "POSITION": 4,
            "NORMAL": 5,
            "TEXCOORD_0": 6
          },
          "indices": 7,
          "material": 0
        }
      ]
    },
    {
      "name": "Triangle",
      "primitives": [
        {
          "attributes": {
            "POSITION": 8,
            "NORMAL": 9,
            "TEXCOORD_0": 10
          },
          "indices": 11,
          "material": 0
        }
      ]
    },
    {
      "name": "Cube.001",
      "primitives": [
        {
          "attributes": {
            "POSITION": 12,
            "NORMAL": 13,
            "TEXCOORD_0": 14
          },
          "indices": 15,
          "material": 0
        }
      ]
    },
    {
      "name": "Floor",
      "primitives": [
        {
          "attributes": {
            "POSITION": 16,
            "NORMAL": 17,
            "TEXCOORD_0": 18
          },
          "indices": 19,
          "material": 1
        }
      ]
    },
    {
      "name": "Floor.001",
      "primitives": [
        {
          "attributes": {
            "POSITION": 20,
            "NORMAL": 21,
            "TEXCOORD_0": 22
          },
          "indices": 19,
          "material": 1
        }
      ]
    },
    {
      "name": "Floor.002",
      "primitives": [
        {
          "attributes": {
            "POSITION": 23,
            "NORMAL": 24,
            "TEXCOORD_0": 25
          },
          "indices": 19,
          "material": 1
        }
      ]
    },
    {
      "name": "Floor.003",
      "primitives": [
        {
          "attributes": {
            "POSITION": 26,
            "NORMAL": 27,
            "TEXCOORD_0": 28
          },
          "indices": 19,
          "material": 1
        }
      ]
    },
    {
      "name": "Floor.004",
      "primitives": [
        {
          "attributes": {
            "POSITION": 29,
            "NORMAL": 30,
            "TEXCOORD_0": 31
          },
          "indices": 32,
          "material": 0
        }
      ]
    },
    {
      "name": "Floor.005",
      "primitives": [
        {
          "attributes": {
            "POSITION": 33,
            "NORMAL": 34,
            "TEXCOORD_0": 35
          },
          "indices": 36,
          "material": 1
        }
      ]
    },
    {
      "name": "Floor.007",
      "primitives": [
        {
          "attributes": {
            "POSITION": 37,
            "NORMAL": 38,
            "TEXCOORD_0": 39
          },
          "indices": 19,
          "material": 1
        }
      ]
    },
    {
      "name": "Floor.008",
      "primitives": [
        {
          "attributes": {
            "POSITION": 40,
            "NORMAL": 41,
            "TEXCOORD_0": 42
          },
          "indices": 19,
          "material": 1
        }
      ]
    },
    {
      "name": "Floor.009",
      "primitives": [
        {
          "attributes": {
            "POSITION": 43,
            "NORMAL": 44,
            "TEXCOORD_0": 45
          },
          "indices": 19,
          "material": 1
        }
      ]
    },
    {
      "name": "Floor.010",
      "primitives": [
        {
          "attributes": {
            "POSITION": 46,
            "NORMAL": 47,
            "TEXCOORD_0": 48
          },
          "indices": 19,
          "material": 1
        }
      ]
    },
    {
      "name": "Floor.011",
      "primitives": [
        {
          "attributes": {
            "POSITION": 49,
            "NORMAL": 50,
            "TEXCOORD_0": 51
          },
          "indices": 52,
          "material": 0
        }
      ]
    },
    {
      "name": "Floor.012",
      "primitives": [
        {
          "attributes": {
            "POSITION": 53,
            "NORMAL": 54,
            "TEXCOORD_0": 55
          },
          "indices": 56,
          "material": 0
        }
      ]
    }
  ],
  "textures": [
    {
      "sampler": 0,
      "source": 0
    }
  ],
  "images": [
    {
      "name": "ImphenziaPalette01",
      "uri": "FigurarEnviroment_img0.png"
    }
  ],
  "accessors": [
    {
      "bufferView": 0,
      "componentType": 5126,
      "count": 24,
      "max": [
        0.5,
        0.5,
        0.004999999888241291
      ],
      "min": [
        -0.5,
        -0.5,
        -0.004999999888241291
      ],
      "type": "VEC3"
    },
    {
      "bufferView": 1,
      "componentType": 5126,
      "count": 24,
      "type": "VEC3"
    },
    {
      "bufferView": 2,
      "componentType": 5126,
      "count": 24,
      "type": "VEC2"
    },
    {
      "bufferView": 3,
      "componentType": 5123,
      "count": 36,
      "type": "SCALAR"
    },
    {
      "bufferView": 4,
      "componentType": 5126,
      "count": 192,
      "max": [
        0.4999997615814209,
        0.49999985098838806,
        0.004999995231628418
      ],
      "min": [
        -0.5000002384185791,
        -0.5000001788139343,
        -0.004999995231628418
      ],
      "type": "VEC3"
    },
    {
      "bufferView": 5,
      "componentType": 5126,
      "count": 192,
      "type": "VEC3"
    },
    {
      "bufferView": 6,
      "componentType": 5126,
      "count": 192,
      "type": "VEC2"
    },
    {
      "bufferView": 7,
      "componentType": 5123,
      "count": 372,
      "type": "SCALAR"
    },
    {
      "bufferView": 8,
      "componentType": 5126,
      "count": 18,
      "max": [
        0.5,
        0.5773333311080933,
        0.004999999888241291
      ],
      "min": [
        -0.5,
        -0.28866666555404663,
        -0.004999999888241291
      ],
      "type": "VEC3"
    },
    {
      "bufferView": 9,
      "componentType": 5126,
      "count": 18,
      "type": "VEC3"
    },
    {
      "bufferView": 10,
      "componentType": 5126,
      "count": 18,
      "type": "VEC2"
    },
    {
      "bufferView": 11,
      "componentType": 5123,
      "count": 24,
      "type": "SCALAR"
    },
    {
      "bufferView": 12,
      "componentType": 5126,
      "count": 48,
      "max": [
        2.1505515575408936,
        2.1521949768066406,
        -2.378538131713867
      ],
      "min": [
        -2.1505515575408936,
        0.25832778215408325,
        -2.398538112640381
      ],
      "type": "VEC3"
    },
    {
      "bufferView": 13,
      "componentType": 5126,
      "count": 48,
      "type": "VEC3"
    },
    {
      "bufferView": 14,
      "componentType": 5126,
      "count": 48,
      "type": "VEC2"
    },
    {
      "bufferView": 15,
      "componentType": 5123,
      "count": 84,
      "type": "SCALAR"
    },
    {
      "bufferView": 16,
      "componentType": 5126,
      "count": 24,
      "max": [
        2.5,
        0.05000000074505806,
        2.5
      ],
      "min": [
        -2.5,
        -0.05000000074505806,
        -2.5
      ],
      "type": "VEC3"
    },
    {
      "bufferView": 17,
      "componentType": 5126,
      "count": 24,
      "type": "VEC3"
    },
    {
      "bufferView": 18,
      "componentType": 5126,
      "count": 24,
      "type": "VEC2"
    },
    {
      "bufferView": 19,
      "componentType": 5123,
      "count": 36,
      "type": "SCALAR"
    },
    {
      "bufferView": 20,
      "componentType": 5126,
      "count": 24,
      "max": [
        2.5,
        0.05000000074505806,
        2.5
      ],
      "min": [
        -2.5,
        -0.05000000074505806,
        -2.5
      ],
      "type": "VEC3"
    },
    {
      "bufferView": 21,
      "componentType": 5126,
      "count": 24,
      "type": "VEC3"
    },
    {
      "bufferView": 22,
      "componentType": 5126,
      "count": 24,
      "type": "VEC2"
    },
    {
      "bufferView": 23,
      "componentType": 5126,
      "count": 24,
      "max": [
        2.5,
        0.05000000074505806,
        2.5
      ],
      "min": [
        -2.5,
        -0.05000000074505806,
        -2.5
      ],
      "type": "VEC3"
    },
    {
      "bufferView": 24,
      "componentType": 5126,
      "count": 24,
      "type": "VEC3"
    },
    {
      "bufferView": 25,
      "componentType": 5126,
      "count": 24,
      "type": "VEC2"
    },
    {
      "bufferView": 26,
      "componentType": 5126,
      "count": 24,
      "max": [
        2.5,
        0.05000000074505806,
        2.5
      ],
      "min": [
        -2.5,
        -0.05000000074505806,
        -2.5
      ],
      "type": "VEC3"
    },
    {
      "bufferView": 27,
      "componentType": 5126,
      "count": 24,
      "type": "VEC3"
    },
    {
      "bufferView": 28,
      "componentType": 5126,
      "count": 24,
      "type": "VEC2"
    },
    {
      "bufferView": 29,
      "componentType": 5126,
      "count": 206,
      "max": [
        2.5,
        0.07683033496141434,
        2.5
      ],
      "min": [
        -2.5,
        -0.050000064074993134,
        -2.5
      ],
      "type": "VEC3"
    },
    {
      "bufferView": 30,
      "componentType": 5126,
      "count": 206,
      "type": "VEC3"
    },
    {
      "bufferView": 31,
      "componentType": 5126,
      "count": 206,
      "type": "VEC2"
    },
    {
      "bufferView": 32,
      "componentType": 5123,
      "count": 348,
      "type": "SCALAR"
    },
    {
      "bufferView": 33,
      "componentType": 5126,
      "count": 24,
      "max": [
        2.5,
        0.05000000074505806,
        2.5
      ],
      "min": [
        -2.5,
        -0.05000000074505806,
        -2.5
      ],
      "type": "VEC3"
    },
    {
      "bufferView": 34,
      "componentType": 5126,
      "count": 24,
      "type": "VEC3"
    },
    {
      "bufferView": 35,
      "componentType": 5126,
      "count": 24,
      "type": "VEC2"
    },
    {
      "bufferView": 36,
      "componentType": 5123,
      "count": 36,
      "type": "SCALAR"
    },
    {
      "bufferView": 37,
      "componentType": 5126,
      "count": 24,
      "max": [
        2.5,
        0.05000000074505806,
        2.5
      ],
      "min": [
        -2.5,
        -0.05000000074505806,
        -2.5
      ],
      "type": "VEC3"
    },
    {
      "bufferView": 38,
      "componentType": 5126,
      "count": 24,
      "type": "VEC3"
    },
    {
      "bufferView": 39,
      "componentType": 5126,
      "count": 24,
      "type": "VEC2"
    },
    {
      "bufferView": 40,
      "componentType": 5126,
      "count": 24,
      "max": [
        2.5,
        0.05000000074505806,
        2.5
      ],
      "min": [
        -2.5,
        -0.05000000074505806,
        -2.5
      ],
      "type": "VEC3"
    },
    {
      "bufferView": 41,
      "componentType": 5126,
      "count": 24,
      "type": "VEC3"
    },
    {
      "bufferView": 42,
      "componentType": 5126,
      "count": 24,
      "type": "VEC2"
    },
    {
      "bufferView": 43,
      "componentType": 5126,
      "count": 24,
      "max": [
        2.5,
        0.05000000074505806,
        2.5
      ],
      "min": [
        -2.5,
        -0.05000000074505806,
        -2.5
      ],
      "type": "VEC3"
    },
    {
      "bufferView": 44,
      "componentType": 5126,
      "count": 24,
      "type": "VEC3"
    },
    {
      "bufferView": 45,
      "componentType": 5126,
      "count": 24,
      "type": "VEC2"
    },
    {
      "bufferView": 46,
      "componentType": 5126,
      "count": 24,
      "max": [
        2.5,
        0.05000000074505806,
        2.5
      ],
      "min": [
        -2.5,
        -0.05000000074505806,
        -2.5
      ],
      "type": "VEC3"
    },
    {
      "bufferView": 47,
      "componentType": 5126,
      "count": 24,
      "type": "VEC3"
    },
    {
      "bufferView": 48,
      "componentType": 5126,
      "count": 24,
      "type": "VEC2"
    },
    {
      "bufferView": 49,
      "componentType": 5126,
      "count": 206,
      "max": [
        2.5,
        0.07683033496141434,
        2.5
      ],
      "min": [
        -2.5,
        -0.050000064074993134,
        -2.5
      ],
      "type": "VEC3"
    },
    {
      "bufferView": 50,
      "componentType": 5126,
      "count": 206,
      "type": "VEC3"
    },
    {
      "bufferView": 51,
      "componentType": 5126,
      "count": 206,
      "type": "VEC2"
    },
    {
      "bufferView": 52,
      "componentType": 5123,
      "count": 354,
      "type": "SCALAR"
    },
    {
      "bufferView": 53,
      "componentType": 5126,
      "count": 349,
      "max": [
        -2.325340509414673,
        1.7810097932815552,
        0.4898412823677063
      ],
      "min": [
        -2.4549970626831055,
        0.04999995231628418,
        -0.4898412823677063
      ],
      "type": "VEC3"
    },
    {
      "bufferView": 54,
      "componentType": 5126,
      "count": 349,
      "type": "VEC3"
    },
    {
      "bufferView": 55,
      "componentType": 5126,
      "count": 349,
      "type": "VEC2"
    },
    {
      "bufferView": 56,
      "componentType": 5123,
      "count": 528,
      "type": "SCALAR"
    }
  ],
  "bufferViews": [
    {
      "buffer": 0,
      "byteLength": 288,
      "byteOffset": 0,
      "target": 34962
    },
    {
      "buffer": 0,
      "byteLength": 288,
      "byteOffset": 288,
      "target": 34962
    },
    {
      "buffer": 0,
      "byteLength": 192,
      "byteOffset": 576,
      "target": 34962
    },
    {
      "buffer": 0,
      "byteLength": 72,
      "byteOffset": 768,
      "target": 34963
    },
    {
      "buffer": 0,
      "byteLength": 2304,
      "byteOffset": 840,
      "target": 34962
    },
    {
      "buffer": 0,
      "byteLength": 2304,
      "byteOffset": 3144,
      "target": 34962
    },
    {
      "buffer": 0,
      "byteLength": 1536,
      "byteOffset": 5448,
      "target": 34962
    },
    {
      "buffer": 0,
      "byteLength": 744,
      "byteOffset": 6984,
      "target": 34963
    },
    {
      "buffer": 0,
      "byteLength": 216,
      "byteOffset": 7728,
      "target": 34962
    },
    {
      "buffer": 0,
      "byteLength": 216,
      "byteOffset": 7944,
      "target": 34962
    },
    {
      "buffer": 0,
      "byteLength": 144,
      "byteOffset": 8160,
      "target": 34962
    },
    {
      "buffer": 0,
      "byteLength": 48,
      "byteOffset": 8304,
      "target": 34963
    },
    {
      "buffer": 0,
      "byteLength": 576,
      "byteOffset": 8352,
      "target": 34962
    },
    {
      "buffer": 0,
      "byteLength": 576,
      "byteOffset": 8928,
      "target": 34962
    },
    {
      "buffer": 0,
      "byteLength": 384,
      "byteOffset": 9504,
      "target": 34962
    },
    {
      "buffer": 0,
      "byteLength": 168,
      "byteOffset": 9888,
      "target": 34963
    },
    {
      "buffer": 0,
      "byteLength": 288,
      "byteOffset": 10056,
      "target": 34962
    },
    {
      "buffer": 0,
      "byteLength": 288,
      "byteOffset": 10344,
      "target": 34962
    },
    {
      "buffer": 0,
      "byteLength": 192,
      "byteOffset": 10632,
      "target": 34962
    },
    {
      "buffer": 0,
      "byteLength": 72,
      "byteOffset": 10824,
      "target": 34963
    },
    {
      "buffer": 0,
      "byteLength": 288,
      "byteOffset": 10896,
      "target": 34962
    },
    {
      "buffer": 0,
      "byteLength": 288,
      "byteOffset": 11184,
      "target": 34962
    },
    {
      "buffer": 0,
      "byteLength": 192,
      "byteOffset": 11472,
      "target": 34962
    },
    {
      "buffer": 0,
      "byteLength": 288,
      "byteOffset": 11664,
      "target": 34962
    },
    {
      "buffer": 0,
      "byteLength": 288,
      "byteOffset": 11952,
      "target": 34962
    },
    {
      "buffer": 0,
      "byteLength": 192,
      "byteOffset": 12240,
      "target": 34962
    },
    {
      "buffer": 0,
      "byteLength": 288,
      "byteOffset": 12432,
      "target": 34962
    },
    {
      "buffer": 0,
      "byteLength": 288,
      "byteOffset": 12720,
      "target": 34962
    },
    {
      "buffer": 0,
      "byteLength": 192,
      "byteOffset": 13008,
      "target": 34962
    },
    {
      "buffer": 0,
      "byteLength": 2472,
      "byteOffset": 13200,
      "target": 34962
    },
    {
      "buffer": 0,
      "byteLength": 2472,
      "byteOffset": 15672,
      "target": 34962
    },
    {
      "buffer": 0,
      "byteLength": 1648,
      "byteOffset": 18144,
      "target": 34962
    },
    {
      "buffer": 0,
      "byteLength": 696,
      "byteOffset": 19792,
      "target": 34963
    },
    {
      "buffer": 0,
      "byteLength": 288,
      "byteOffset": 20488,
      "target": 34962
    },
    {
      "buffer": 0,
      "byteLength": 288,
      "byteOffset": 20776,
      "target": 34962
    },
    {
      "buffer": 0,
      "byteLength": 192,
      "byteOffset": 21064,
      "target": 34962
    },
    {
      "buffer": 0,
      "byteLength": 72,
      "byteOffset": 21256,
      "target": 34963
    },
    {
      "buffer": 0,
      "byteLength": 288,
      "byteOffset": 21328,
      "target": 34962
    },
    {
      "buffer": 0,
      "byteLength": 288,
      "byteOffset": 21616,
      "target": 34962
    },
    {
      "buffer": 0,
      "byteLength": 192,
      "byteOffset": 21904,
      "target": 34962
    },
    {
      "buffer": 0,
      "byteLength": 288,
      "byteOffset": 22096,
      "target": 34962
    },
    {
      "buffer": 0,
      "byteLength": 288,
      "byteOffset": 22384,
      "target": 34962
    },
    {
      "buffer": 0,
      "byteLength": 192,
      "byteOffset": 22672,
      "target": 34962
    },
    {
      "buffer": 0,
      "byteLength": 288,
      "byteOffset": 22864,
      "target": 34962
    },
    {
      "buffer": 0,
      "byteLength": 288,
      "byteOffset": 23152,
      "target": 34962
    },
    {
      "buffer": 0,
      "byteLength": 192,
      "byteOffset": 23440,
      "target": 34962
    },
    {
      "buffer": 0,
      "byteLength": 288,
      "byteOffset": 23632,
      "target": 34962
    },
    {
      "buffer": 0,
      "byteLength": 288,
      "byteOffset": 23920,
      "target": 34962
    },
    {
      "buffer": 0,
      "byteLength": 192,
      "byteOffset": 24208,
      "target": 34962
    },
    {
      "buffer": 0,
      "byteLength": 2472,
      "byteOffset": 24400,
      "target": 34962
    },
    {
      "buffer": 0,
      "byteLength": 2472,
      "byteOffset": 26872,
      "target": 34962
    },
    {
      "buffer": 0,
      "byteLength": 1648,
      "byteOffset": 29344,
      "target": 34962
    },
    {
      "buffer": 0,
      "byteLength": 708,
      "byteOffset": 30992,
      "target": 34963
    },
    {
      "buffer": 0,
      "byteLength": 4188,
      "byteOffset": 31700,
      "target": 34962
    },
    {
      "buffer": 0,
      "byteLength": 4188,
      "byteOffset": 35888,
      "target": 34962
    },
    {
      "buffer": 0,
      "byteLength": 2792,
      "byteOffset": 40076,
      "target": 34962
    },
    {
      "buffer": 0,
      "byteLength": 1056,
      "byteOffset": 42868,
      "target": 34963
    }
  ],
  "samplers": [
    {
      "magFilter": 9728,
      "minFilter": 9984
    }
  ],
  "buffers": [
    {
      "uri": "FigurarEnviroment_data.bin",
      "byteLength": 43924
    }
  ]
}