{
  "asset": {
    "generator": "Khronos glTF Blender I/O v3.3.27",
    "version": "2.0"
  },
  "extensionsUsed": [
    "KHR_materials_specular",
    "KHR_materials_ior"
  ],
  "scene": 0,
  "scenes": [
    {
      "name": "Scene",
      "nodes": [
        0,
        1,
        2,
        3,
        4,
        5,
        6
      ]
    }
  ],
  "nodes": [
    {
      "mesh": 0,
      "name": "Cube",
      "translation": [
        -0.9753358960151672,
        0.5,
        -2.024106502532959
      ]
    },
    {
      "mesh": 1,
      "name": "Pyramid",
      "translation": [
        1.3241748809814453,
        0.5,
        -2.0150561332702637
      ]
    },
    {
      "mesh": 2,
      "name": "Cylinder",
      "translation": [
        -2.946317195892334,
        0.5,
        -1.4382045269012451
      ]
    },
    {
      "mesh": 3,
      "name": "Sphere",
      "translation": [
        3.0712687969207764,
        0.49999988079071045,
        -1.3995410203933716
      ]
    },
    {
      "mesh": 4,
      "name": "Ground",
      "scale": [
        4,
        1,
        3
      ]
    },
    {
      "mesh": 5,
      "name": "Board",
      "scale": [
        1,
        0.5,
        0.026744604110717773
      ],
      "translation": [
        0,
        1.5,
        3
      ]
    },
    {
      "mesh": 6,
      "name": "Walls",
      "scale": [
        4,
        1.25,
        0.05000000074505806
      ]
    }
  ],
  "materials": [
    {
      "doubleSided": true,
      "name": "Material",
      "pbrMetallicRoughness": {
        "baseColorFactor": [
          0.032320909202098846,
          0,
          0.8000000715255737,
          1
        ],
        "metallicFactor": 0,
        "roughnessFactor": 0.4000000059604645
      }
    },
    {
      "doubleSided": true,
      "extensions": {
        "KHR_materials_specular": {
          "specularColorFactor": [
            0.883869661431573,
            0.883869661431573,
            0.883869661431573
          ]
        },
        "KHR_materials_ior": {
          "ior": 1.4500000476837158
        }
      },
      "name": "WallsMaterial",
      "pbrMetallicRoughness": {
        "metallicFactor": 0,
        "roughnessFactor": 0.5545454621315002
      }
    }
  ],
  "meshes": [
    {
      "name": "Cube",
      "primitives": [
        {
          "attributes": {
            "POSITION": 0,
            "NORMAL": 1,
            "TEXCOORD_0": 2
          },
          "indices": 3,
          "material": 0
        }
      ]
    },
    {
      "name": "Pyramid",
      "primitives": [
        {
          "attributes": {
            "POSITION": 4,
            "NORMAL": 5,
            "TEXCOORD_0": 6
          },
          "indices": 7,
          "material": 0
        }
      ]
    },
    {
      "name": "Cylinder",
      "primitives": [
        {
          "attributes": {
            "POSITION": 8,
            "NORMAL": 9,
            "TEXCOORD_0": 10
          },
          "indices": 11,
          "material": 0
        }
      ]
    },
    {
      "name": "Sphere",
      "primitives": [
        {
          "attributes": {
            "POSITION": 12,
            "NORMAL": 13,
            "TEXCOORD_0": 14
          },
          "indices": 15,
          "material": 0
        }
      ]
    },
    {
      "name": "Ground",
      "primitives": [
        {
          "attributes": {
            "POSITION": 16,
            "NORMAL": 17,
            "TEXCOORD_0": 18
          },
          "indices": 19
        }
      ]
    },
    {
      "name": "Board",
      "primitives": [
        {
          "attributes": {
            "POSITION": 20,
            "NORMAL": 21,
            "TEXCOORD_0": 22
          },
          "indices": 23
        }
      ]
    },
    {
      "name": "Walls",
      "primitives": [
        {
          "attributes": {
            "POSITION": 24,
            "NORMAL": 25,
            "TEXCOORD_0": 26
          },
          "indices": 27,
          "material": 1
        }
      ]
    }
  ],
  "accessors": [
    {
      "bufferView": 0,
      "componentType": 5126,
      "count": 141,
      "max": [
        0.5,
        0.5,
        0.5
      ],
      "min": [
        -0.5,
        -0.5,
        -0.5
      ],
      "type": "VEC3"
    },
    {
      "bufferView": 1,
      "componentType": 5126,
      "count": 141,
      "type": "VEC3"
    },
    {
      "bufferView": 2,
      "componentType": 5126,
      "count": 141,
      "type": "VEC2"
    },
    {
      "bufferView": 3,
      "componentType": 5123,
      "count": 564,
      "type": "SCALAR"
    },
    {
      "bufferView": 4,
      "componentType": 5126,
      "count": 107,
      "max": [
        0.49999988079071045,
        0.5000002980232239,
        0.5
      ],
      "min": [
        -0.49999988079071045,
        -0.4999999403953552,
        -0.5
      ],
      "type": "VEC3"
    },
    {
      "bufferView": 5,
      "componentType": 5126,
      "count": 107,
      "type": "VEC3"
    },
    {
      "bufferView": 6,
      "componentType": 5126,
      "count": 107,
      "type": "VEC2"
    },
    {
      "bufferView": 7,
      "componentType": 5123,
      "count": 372,
      "type": "SCALAR"
    },
    {
      "bufferView": 8,
      "componentType": 5126,
      "count": 484,
      "max": [
        0.5,
        0.5,
        0.5
      ],
      "min": [
        -0.5,
        -0.5,
        -0.5
      ],
      "type": "VEC3"
    },
    {
      "bufferView": 9,
      "componentType": 5126,
      "count": 484,
      "type": "VEC3"
    },
    {
      "bufferView": 10,
      "componentType": 5126,
      "count": 484,
      "type": "VEC2"
    },
    {
      "bufferView": 11,
      "componentType": 5123,
      "count": 1524,
      "type": "SCALAR"
    },
    {
      "bufferView": 12,
      "componentType": 5126,
      "count": 559,
      "max": [
        0.5000001192092896,
        0.5,
        0.5000001788139343
      ],
      "min": [
        -0.49999991059303284,
        -0.5,
        -0.5
      ],
      "type": "VEC3"
    },
    {
      "bufferView": 13,
      "componentType": 5126,
      "count": 559,
      "type": "VEC3"
    },
    {
      "bufferView": 14,
      "componentType": 5126,
      "count": 559,
      "type": "VEC2"
    },
    {
      "bufferView": 15,
      "componentType": 5123,
      "count": 2880,
      "type": "SCALAR"
    },
    {
      "bufferView": 16,
      "componentType": 5126,
      "count": 4,
      "max": [
        1,
        0,
        1
      ],
      "min": [
        -1,
        0,
        -1
      ],
      "type": "VEC3"
    },
    {
      "bufferView": 17,
      "componentType": 5126,
      "count": 4,
      "type": "VEC3"
    },
    {
      "bufferView": 18,
      "componentType": 5126,
      "count": 4,
      "type": "VEC2"
    },
    {
      "bufferView": 19,
      "componentType": 5123,
      "count": 6,
      "type": "SCALAR"
    },
    {
      "bufferView": 20,
      "componentType": 5126,
      "count": 56,
      "max": [
        1.644898772239685,
        1.3901100158691406,
        -3.31124210357666
      ],
      "min": [
        -1.644898772239685,
        -1.8996875286102295,
        -5.31124210357666
      ],
      "type": "VEC3"
    },
    {
      "bufferView": 21,
      "componentType": 5126,
      "count": 56,
      "type": "VEC3"
    },
    {
      "bufferView": 22,
      "componentType": 5126,
      "count": 56,
      "type": "VEC2"
    },
    {
      "bufferView": 23,
      "componentType": 5123,
      "count": 84,
      "type": "SCALAR"
    },
    {
      "bufferView": 24,
      "componentType": 5126,
      "count": 96,
      "max": [
        1,
        2,
        60
      ],
      "min": [
        -1.0000001192092896,
        0,
        -60
      ],
      "type": "VEC3"
    },
    {
      "bufferView": 25,
      "componentType": 5126,
      "count": 96,
      "type": "VEC3"
    },
    {
      "bufferView": 26,
      "componentType": 5126,
      "count": 96,
      "type": "VEC2"
    },
    {
      "bufferView": 27,
      "componentType": 5123,
      "count": 144,
      "type": "SCALAR"
    }
  ],
  "bufferViews": [
    {
      "buffer": 0,
      "byteLength": 1692,
      "byteOffset": 0,
      "target": 34962
    },
    {
      "buffer": 0,
      "byteLength": 1692,
      "byteOffset": 1692,
      "target": 34962
    },
    {
      "buffer": 0,
      "byteLength": 1128,
      "byteOffset": 3384,
      "target": 34962
    },
    {
      "buffer": 0,
      "byteLength": 1128,
      "byteOffset": 4512,
      "target": 34963
    },
    {
      "buffer": 0,
      "byteLength": 1284,
      "byteOffset": 5640,
      "target": 34962
    },
    {
      "buffer": 0,
      "byteLength": 1284,
      "byteOffset": 6924,
      "target": 34962
    },
    {
      "buffer": 0,
      "byteLength": 856,
      "byteOffset": 8208,
      "target": 34962
    },
    {
      "buffer": 0,
      "byteLength": 744,
      "byteOffset": 9064,
      "target": 34963
    },
    {
      "buffer": 0,
      "byteLength": 5808,
      "byteOffset": 9808,
      "target": 34962
    },
    {
      "buffer": 0,
      "byteLength": 5808,
      "byteOffset": 15616,
      "target": 34962
    },
    {
      "buffer": 0,
      "byteLength": 3872,
      "byteOffset": 21424,
      "target": 34962
    },
    {
      "buffer": 0,
      "byteLength": 3048,
      "byteOffset": 25296,
      "target": 34963
    },
    {
      "buffer": 0,
      "byteLength": 6708,
      "byteOffset": 28344,
      "target": 34962
    },
    {
      "buffer": 0,
      "byteLength": 6708,
      "byteOffset": 35052,
      "target": 34962
    },
    {
      "buffer": 0,
      "byteLength": 4472,
      "byteOffset": 41760,
      "target": 34962
    },
    {
      "buffer": 0,
      "byteLength": 5760,
      "byteOffset": 46232,
      "target": 34963
    },
    {
      "buffer": 0,
      "byteLength": 48,
      "byteOffset": 51992,
      "target": 34962
    },
    {
      "buffer": 0,
      "byteLength": 48,
      "byteOffset": 52040,
      "target": 34962
    },
    {
      "buffer": 0,
      "byteLength": 32,
      "byteOffset": 52088,
      "target": 34962
    },
    {
      "buffer": 0,
      "byteLength": 12,
      "byteOffset": 52120,
      "target": 34963
    },
    {
      "buffer": 0,
      "byteLength": 672,
      "byteOffset": 52132,
      "target": 34962
    },
    {
      "buffer": 0,
      "byteLength": 672,
      "byteOffset": 52804,
      "target": 34962
    },
    {
      "buffer": 0,
      "byteLength": 448,
      "byteOffset": 53476,
      "target": 34962
    },
    {
      "buffer": 0,
      "byteLength": 168,
      "byteOffset": 53924,
      "target": 34963
    },
    {
      "buffer": 0,
      "byteLength": 1152,
      "byteOffset": 54092,
      "target": 34962
    },
    {
      "buffer": 0,
      "byteLength": 1152,
      "byteOffset": 55244,
      "target": 34962
    },
    {
      "buffer": 0,
      "byteLength": 768,
      "byteOffset": 56396,
      "target": 34962
    },
    {
      "buffer": 0,
      "byteLength": 288,
      "byteOffset": 57164,
      "target": 34963
    }
  ],
  "buffers": [
    {
      "uri": "Figures_data.bin",
      "byteLength": 57452
    }
  ]
}